<?xml version="1.0" encoding="utf-8"?>
<!-- Generator: Adobe Illustrator 27.0.0, SVG Export Plug-In . SVG Version: 6.00 Build 0)  -->
<svg version="1.1" id="_x31_" xmlns="http://www.w3.org/2000/svg" xmlns:xlink="http://www.w3.org/1999/xlink" x="0px" y="0px"
	 viewBox="0 0 566 419" style="enable-background:new 0 0 566 419;" xml:space="preserve">
<style type="text/css">
	.st0{fill:#C2DEFF;}
	.st1{fill:#FFBA1F;}
	.st2{fill:#97CDFF;}
	.st3{fill:#FFFFFF;}
	.st4{fill:#FEB91E;}
	.st5{fill:#F72F2F;}
	.st6{fill:#080877;}
	.st7{fill:#FDB5B9;}
	.st8{fill:#FD727C;}
	.st9{fill:#0C0346;}
	.st10{fill:#2C119C;}
	.st11{fill:#5942E2;}
	.st12{fill:#5898FC;}
	.st13{fill:#E7F2FF;}
	.st14{fill:#CEA051;}
	.st15{fill:#3A3AED;}
	.st16{fill:#3482F4;}
	.st17{fill:#FB9797;}
</style>
<g>
	<g>
		<rect x="330.81" y="140.87" class="st0" width="34.35" height="228.49"/>
		<rect x="296.92" y="114.9" class="st1" width="34.35" height="254.46"/>
		<rect x="364.68" y="117.6" class="st2" width="31.73" height="251.76"/>
		<g>
			<path class="st3" d="M389.76,218.06h-19.2c-1.02,0-1.85-0.83-1.85-1.85v-90.48c0-1.02,0.83-1.85,1.85-1.85h19.2
				c1.02,0,1.85,0.83,1.85,1.85v90.48C391.61,217.23,390.78,218.06,389.76,218.06z M370.56,124.62c-0.61,0-1.11,0.5-1.11,1.11v90.48
				c0,0.61,0.5,1.11,1.11,1.11h19.2c0.61,0,1.11-0.5,1.11-1.11v-90.48c0-0.61-0.5-1.11-1.11-1.11H370.56z"/>
		</g>
		<g>
			<path class="st3" d="M325.87,167.74H302.6c-1.02,0-1.85-0.83-1.85-1.85v-44.97c0-1.02,0.83-1.85,1.85-1.85h23.27
				c1.02,0,1.85,0.83,1.85,1.85v44.97C327.71,166.91,326.89,167.74,325.87,167.74z M302.6,119.82c-0.61,0-1.11,0.5-1.11,1.11v44.97
				c0,0.61,0.5,1.11,1.11,1.11h23.27c0.61,0,1.11-0.5,1.11-1.11v-44.97c0-0.61-0.5-1.11-1.11-1.11H302.6z"/>
		</g>
		<rect x="337.45" y="191.1" class="st2" width="21.05" height="168.76"/>
		<rect x="337.45" y="169.06" class="st2" width="21.05" height="8.64"/>
		<rect x="337.45" y="150.59" class="st2" width="21.05" height="8.64"/>
	</g>
	<g>
		<path class="st4" d="M291.16,335.3H148.09h-2.83H48.78c0.97,1.01,1.56,2.38,1.56,3.88v26.29c0,1.5-0.59,2.87-1.56,3.88h97.68h2.26
			h142.43c3.11,0,5.65-2.54,5.65-5.65v-22.75C296.81,337.85,294.26,335.3,291.16,335.3z"/>
		<path class="st5" d="M225.19,229.46c-3.39-9.12-7.35-13-10.39-13.92c-1.32-0.4-3.8-0.31-6.18-0.08c-0.43,0.3-0.87,0.58-1.32,0.83
			c-2.07,1.18-4.18,1.86-5.79,1.73c-1.29-0.11-2.49-0.36-3.57-0.83c-0.68-0.3-1.31-0.68-1.88-1.18c-4.53,0.39-7.72,1.4-10.59,3.99
			c-2.97,2.69-7.63,11.17-8.83,14.7c-1.2,3.53-4.1,8.83-5.87,9.68c-1.77,0.85-3.64,1.4-4.95,0.49c0,0,0.42,12.72-1.7,17.39
			c0,0,7.14,1.84,14.28-3.18l-3.89,16.68c0,0,3.6,2.97,14.98,3.89c11.38,0.92,17.25-1.06,17.25-1.06l8.83-25.59l2.61,5.37
			c0,0,4.24-0.85,8.91-2.9c4.66-2.05,5.3-4.24,5.3-4.24S228.59,238.58,225.19,229.46z"/>
		<path class="st6" d="M174.52,275.76c0,0-20.34-24.46-24.24-28.18c-3.9-3.72-6.64-8.11-11.8-6.82
			c-5.16,1.29-29.83,26.52-34.14,30.69c-4.31,4.17-21.16,22.54-21.16,22.54l33.13-6.61c0,0,21.11-18.19,22.31-18.54
			c1.2-0.35,10.17,12.06,10.17,12.06L174.52,275.76z"/>
		<path class="st7" d="M165.83,244.87c-1.34-0.49-5.3-4.81-8.48-8.48c-3.18-3.68-14.75-15.41-14.75-15.41l-5.65,4.29
			c0,0,9.23,19.32,19.22,30.44c4.11,4.57,7.96,6.55,7.96,6.55C166.25,257.59,165.83,244.87,165.83,244.87z"/>
		<path class="st7" d="M250.21,297.74c-2.47-1.06-4.74-0.78-5.37,0.49c0,0-4.95-20.64-7-28.62c-2.05-7.99-5.44-18.38-5.44-18.38
			s-0.64,2.19-5.3,4.24c-4.66,2.05-8.91,2.9-8.91,2.9c0.78,2.05,18.16,43.61,18.16,43.61h18.59
			C254.95,301.98,252.69,298.8,250.21,297.74z"/>
		<path class="st8" d="M201.52,218.01c-1.29-0.11-2.49-0.36-3.57-0.83c0.96,3.66,2.65,3.73,4.28,3.8c1.63,0.07,4.3-1.68,5.08-4.69
			C205.24,217.47,203.13,218.15,201.52,218.01z"/>
		<path class="st7" d="M219.47,204.16c-0.68-0.91-2.03-0.71-2.91-0.45c-1.56,1.39-1.19,0-1.19,0c0.49-2.5-1.06-6.62-3.96-8.74
			c-2.9-2.12-7.49-2.05-10.88-2.54c-1.28-0.19-2.31-0.64-3-1.28c-1.38,2.38-5.61,13.2-4.49,18.95c0.55,2.83,1.61,4.69,3.03,5.91
			c0.57,0.49,1.2,0.88,1.88,1.18c1.08,0.47,2.28,0.72,3.57,0.83c1.61,0.14,3.72-0.54,5.79-1.73c0.44-0.25,0.88-0.53,1.32-0.83
			c2.7-1.85,5.12-4.47,5.97-7.13c0,0,0.85,1.91,2.54,0.85C218.83,208.12,220.53,205.58,219.47,204.16z"/>
		<path class="st9" d="M218.2,193.35c-1.27-4.59-3.96-7.42-8.69-8.76c-4.74-1.34-10.46-0.78-12.23,2.12
			c-1.1,1.8-0.88,3.38,0.25,4.44c0.69,0.64,1.72,1.1,3,1.28c3.39,0.49,7.99,0.42,10.88,2.54c2.9,2.12,4.45,6.24,3.96,8.74
			c0,0-0.37,1.39,1.19,0C218.09,202.36,219.47,197.94,218.2,193.35z"/>
		<path class="st10" d="M189.5,279.64c-11.38-0.92-14.98-3.89-14.98-3.89l-93.15,18.59l6.71,9.82c0,0,65.23-0.35,79.3-0.64
			c14.06-0.28,28.55-3.32,32.02-6.22c3.46-2.9,7-16.18,7.35-18.73C206.75,278.58,200.88,280.56,189.5,279.64z"/>
		<polygon class="st9" points="81.37,294.34 69.56,287.14 78.89,304.59 88.08,304.17 		"/>
		<path class="st9" d="M74.23,295.86c0,0-13.57,3.85-13.36,3.92c0.21,0.07,17.53,3.88,17.53,3.88L74.23,295.86z"/>
		<path class="st1" d="M135.87,163.31h-16.75c-3.11,0-5.65,2.54-5.65,5.65v13.29c0,3.11,2.54,5.65,5.65,5.65h16.75
			c0.44,0,0.87-0.06,1.29-0.16c1.16,1.9,6.89,6.36,6.89,6.36l-2.53-25.15C141.53,165.85,138.98,163.31,135.87,163.31z"/>
		<g>
			<path class="st9" d="M199.96,197.52c-0.1,0-0.2-0.05-0.25-0.15c-0.65-1.18-3.25-2.41-3.28-2.43c-0.14-0.07-0.2-0.23-0.14-0.38
				c0.07-0.14,0.24-0.2,0.38-0.14c0.11,0.05,2.79,1.33,3.53,2.66c0.08,0.14,0.03,0.31-0.11,0.38
				C200.06,197.51,200.01,197.52,199.96,197.52z"/>
		</g>
		<g>
			<path class="st9" d="M209.5,200.7c-0.07,0-0.14-0.02-0.19-0.07c-1.68-1.54-4.69-1.67-4.9-1.63c-0.15,0.05-0.3-0.03-0.35-0.18
				c-0.05-0.15,0.04-0.31,0.19-0.36c0.28-0.09,3.58,0.04,5.44,1.76c0.11,0.11,0.12,0.28,0.02,0.4
				C209.66,200.67,209.58,200.7,209.5,200.7z"/>
		</g>
		<g>
			<path class="st9" d="M215.3,207.06c-0.08,0-0.15-0.03-0.21-0.09c-0.11-0.11-0.1-0.29,0.01-0.4c0.04-0.04,1.1-1.02,2.12-1.53
				c0.14-0.07,0.31-0.01,0.38,0.13c0.07,0.14,0.01,0.31-0.13,0.38c-0.94,0.47-1.97,1.43-1.98,1.44
				C215.44,207.03,215.37,207.06,215.3,207.06z"/>
		</g>
		<g>
			<path class="st9" d="M195.86,207.06c-0.09,0-0.17-0.04-0.22-0.11c-0.07-0.09-0.08-0.21-0.03-0.3c1.38-2.72,4.02-7.9,4.09-8.06
				c0.07-0.14,0.23-0.2,0.37-0.14c0.14,0.07,0.2,0.23,0.14,0.37c-0.06,0.14-2.87,5.66-3.83,7.54l2.51-0.6
				c0.15-0.04,0.3,0.06,0.34,0.21c0.04,0.15-0.06,0.3-0.21,0.34l-3.11,0.74C195.91,207.06,195.88,207.06,195.86,207.06z"/>
		</g>
		<g>
			<path class="st9" d="M199.72,212.39c-2.25,0-3.32-1.12-3.38-1.18c-0.11-0.11-0.1-0.29,0.02-0.4c0.12-0.11,0.29-0.1,0.4,0.01
				c0.06,0.07,1.52,1.56,4.76,0.77c0.15-0.04,0.31,0.06,0.34,0.21c0.04,0.15-0.06,0.3-0.21,0.34
				C200.94,212.32,200.29,212.39,199.72,212.39z"/>
		</g>
		<g>
			<path class="st9" d="M177.85,261.73c-0.02,0-0.04,0-0.06-0.01c-0.15-0.04-0.25-0.19-0.21-0.34c0.42-1.78,0.82-4.06,1.24-6.46
				c0.55-3.08,1.11-6.26,1.78-8.92c0.04-0.15,0.19-0.24,0.34-0.2c0.15,0.04,0.24,0.19,0.2,0.34c-0.67,2.63-1.23,5.81-1.77,8.88
				c-0.43,2.41-0.83,4.69-1.25,6.49C178.1,261.64,177.98,261.73,177.85,261.73z"/>
		</g>
		<g>
			<path class="st9" d="M218.71,259.93c-0.11,0-0.21-0.06-0.26-0.16c-0.03-0.07-3.15-6.7-4.9-10.76c-0.06-0.14,0-0.31,0.15-0.37
				c0.14-0.06,0.31,0,0.37,0.15c1.74,4.05,4.86,10.67,4.89,10.74c0.07,0.14,0.01,0.31-0.14,0.38
				C218.79,259.92,218.75,259.93,218.71,259.93z"/>
		</g>
		<path class="st9" d="M204.53,202.56c-0.21,0.62-0.63,1.04-0.92,0.93c-0.3-0.1-0.36-0.69-0.15-1.3c0.21-0.62,0.63-1.04,0.92-0.93
			C204.67,201.36,204.74,201.94,204.53,202.56z"/>
		<path class="st9" d="M196.86,199.75c-0.21,0.62-0.63,1.04-0.92,0.93c-0.3-0.1-0.36-0.69-0.15-1.3c0.21-0.62,0.63-1.04,0.92-0.93
			C197.01,198.54,197.07,199.13,196.86,199.75z"/>
		<g>
			<path class="st9" d="M136.94,169.2h-19.69c-0.16,0-0.28-0.13-0.28-0.28c0-0.16,0.13-0.28,0.28-0.28h19.69
				c0.16,0,0.28,0.13,0.28,0.28C137.23,169.07,137.1,169.2,136.94,169.2z"/>
		</g>
		<g>
			<path class="st9" d="M136.94,174.1h-19.69c-0.16,0-0.28-0.13-0.28-0.28c0-0.16,0.13-0.28,0.28-0.28h19.69
				c0.16,0,0.28,0.13,0.28,0.28C137.23,173.97,137.1,174.1,136.94,174.1z"/>
		</g>
		<g>
			<path class="st9" d="M136.94,178.99h-19.69c-0.16,0-0.28-0.13-0.28-0.28c0-0.16,0.13-0.28,0.28-0.28h19.69
				c0.16,0,0.28,0.13,0.28,0.28C137.23,178.87,137.1,178.99,136.94,178.99z"/>
		</g>
		<polygon class="st11" points="135.48,204.88 128.15,210.59 136.42,226.14 143.11,220.98 		"/>
		<polygon class="st12" points="129.14,211.02 135.22,206.28 141.8,220.28 136.57,224.94 		"/>
		<path class="st7" d="M143.12,215.95c-1.86-1-2.85,5.17-2.26,6.39c0.58,1.22,1.51,0.25,2.33-1.34
			C144.02,219.41,144.43,216.65,143.12,215.95z"/>
		<path class="st7" d="M135.52,217.85c-0.08-1.44-6.58-2.97-6.88-1.63c-0.31,1.33,1.76,1.74,1.76,1.74s-1.18-0.26-0.89,0.77
			c0.29,1.03,1.87,1.58,1.87,1.58s-1.07,0.01-0.89,0.77c0.18,0.76,1.98,1.35,3.86,1.94c1.87,0.58,3.29,0.02,3.08-0.45
			c-0.21-0.47-2.13-1.4-2.13-1.4s1.04-0.22,0.98-1.14c-0.06-0.92-2.16-1.61-2.16-1.61S135.57,218.63,135.52,217.85z"/>
		<path class="st12" d="M58.82,303.67l222.49-1.69c0,0,13.29,14.98,0,33.08H60.87l2.19-2.26h109.96c0,0,9.03-12.44,0-26.86H60.87
			L58.82,303.67z"/>
		<path class="st13" d="M60.87,305.94l2.19,26.86h109.96c0,0,9.41-10.74,0-26.86H60.87z"/>
		<path class="st0" d="M150.98,367.1v-29.22c0-0.11,0-0.21-0.01-0.32h140.18c1.87,0,3.39,1.52,3.39,3.39v22.75
			c0,1.87-1.52,3.39-3.39,3.39H150.98z"/>
		<path class="st13" d="M52.43,367.1c0.11-0.53,0.17-1.07,0.17-1.62v-26.29c0-0.55-0.06-1.09-0.17-1.62h94.01
			c0.01,0.1,4.54,0.21,4.54,0.32v29.22H52.43z"/>
		<g>
			<path class="st13" d="M279.65,333.08h-101.8c-0.1,0-0.2-0.06-0.25-0.14c-0.05-0.09-0.05-0.2,0-0.29
				c4.69-7.73,4.44-14.54,3.41-18.89c-1.12-4.71-3.37-7.62-3.39-7.65c-0.07-0.09-0.08-0.2-0.03-0.3c0.05-0.1,0.15-0.16,0.25-0.16
				h101.8c0.08,0,0.16,0.04,0.21,0.1c3.65,4.17,4.81,10.2,3.36,17.43c-1.09,5.44-3.3,9.7-3.32,9.74
				C279.85,333.02,279.76,333.08,279.65,333.08z M178.35,332.51h101.13c0.83-1.69,8.03-17.01,0.05-26.29H178.4
				C179.93,308.52,186.13,319.25,178.35,332.51z"/>
		</g>
	</g>
	<g>
		<path class="st6" d="M399.58,172.76c2.24-6.71,6.91-10.41,10.9-11.48c2.9-0.78,10.17-1.69,16.28-1.92
			c0.07,2.64,2.16,5.31,4.42,6.59c2.4,1.36,6.03,1.75,6.42,1.23c0.27-0.36-0.17-3.98-0.79-7.3c5.75,0.77,12.76,2.13,16.98,3.54
			c4.6,1.53,7.86,5,9.71,7.54l-7.39,27.59c-0.23,0.86,0.28,1.56,1.14,1.56h2.56l5.66,27.15c0,0-1.48,0.14-3.89,0.35
			c-4.79,0.41-13.26,1.08-21.22,1.4c-9.29,0.38-24.08-0.71-30.33-1.76c-1.81-0.3-2.91-0.6-2.95-0.87c-0.14-0.84,0.86-3.36,1.45-4.73
			c0.65,0.23,1.33,0.42,2.06,0.54c8.17,1.36,27.83-6.91,37.76-12.36c0,0,6.48-0.49,7.76-1.46c1.29-0.97-4.55-0.58-4.55-0.58
			s4.87-1.17,5.84-2.43c0.97-1.27-4.77-0.78-4.77-0.78s5.74-1.07,5.74-2.14c0-1.07-6.42,0.68-9.73,0c-3.31-0.68-3.99-1.56-3.5-3.5
			c0.49-1.95,0.97-5.06-0.1-4.67c-1.07,0.39-3.02,4.28-3.11,6.23c-0.1,1.95-6.52,3.8-12.07,4.67c-5.55,0.88-11.68,1.07-14.89-2.92
			c0,0-5.16-0.78-9.73,0.58c-4.57,1.36-7.79,4.96-7.79,4.96C393.64,197.19,397.34,179.48,399.58,172.76z"/>
		<path class="st7" d="M426.76,159.36c0.06,2.64,2.16,5.31,4.41,6.59c2.41,1.36,6.03,1.75,6.42,1.23c0.18-0.23,0.05-1.86-0.23-3.89
			c-0.16-1.07-0.35-2.27-0.56-3.42c-0.18-0.95-0.37-1.88-0.57-2.7c-0.11-0.06-0.23-0.12-0.33-0.18c-2.86-1.67-5.33-7.42-5.32-10.86
			c-0.62,1.42-1.39,3.57-2.06,5.72c-0.91,2.85-1.68,5.73-1.77,7.02C426.75,159.04,426.75,159.2,426.76,159.36z"/>
		<path class="st7" d="M429.17,137.86c1.62-0.13,2.34,1.49,2.34,1.49s1.3-1.88,1.62-4.87c0.32-2.98,2.4-8.3,8.05-6.75
			c5.64,1.56,10.51,5.83,10.77,7.4c0.74,4.41,0.13,13.88-3.76,19.07c-3.76,5.01-8.79,4.64-11.93,2.97
			c-0.11-0.06-0.22-0.11-0.33-0.18c-2.86-1.67-5.32-7.42-5.31-10.86c0-0.31,0.01-0.61,0.06-0.88c0,0-1.62,1.56-3.7-0.52
			C424.88,142.66,427.54,137.99,429.17,137.86z"/>
		<path class="st7" d="M463.71,202.64c2.53,2.82,9.73,9.31,19.56,8.92c9.83-0.39,15.9-8.92,15.9-8.92H463.71z"/>
		<path class="st9" d="M430.19,138.03c0.08-0.88-0.44-4.65-0.31-7.56c0.13-2.92,2.79-7.45,5.97-7.85c3.18-0.4,6.03,0.06,9.6,0
			c3.57-0.06,8.24,1.19,10.9,4.85c2.66,3.65-1.04,7.61-4.41,7.68c-3.37,0.06-5.9-1.56-8.11-3.31c-2.21-1.75-4.74-2.01-5.13-0.58
			c-0.39,1.43-0.84,2.98-2.08,2.92c-1.23-0.06-1.88-2.4-2.34-2.01c-0.45,0.39-0.78,3.57-1.49,5.45c-0.71,1.88-1.11,2.08-1.3,1.75
			C431.32,139.02,430.19,138.03,430.19,138.03z"/>
		<path class="st10" d="M471.6,373.1l-14.99-14.16l2.57-6.63l0.01,0.01c2.29,2.15,6.22,4.58,9.6,6.46
			C469.33,361.95,471.6,373.1,471.6,373.1z"/>
		<path class="st10" d="M439.82,361.3l1.22,7.66l-21.31,1.27l11.91-9.56C434.66,361.48,437.61,361.5,439.82,361.3z"/>
		<path class="st11" d="M409.9,272.81c1.56,9.63,6.62,39.03,7.89,45.05c1.26,6.04,8.56,40.39,8.56,40.39
			c1.69,1.17,3.5,1.93,5.29,2.41c3.02,0.82,5.97,0.83,8.19,0.63c2.26-0.19,3.74-0.61,3.74-0.61s-1.56-46.61-2.14-57.51
			c-0.58-10.9-2.83-51.87-2.83-52.84c0-0.98,1.27,0,1.66,0.39c0.39,0.39,25.59,42.52,25.59,42.52s-2.73,17.22-3.6,22.48
			c-0.87,5.25-4.38,35.13-4.38,35.13c0.33,0.46,0.78,0.95,1.31,1.45c2.3,2.16,6.22,4.59,9.61,6.47c3.33,1.85,6.13,3.18,6.31,3.18
			c0.39,0,3.99-11.78,7.98-25.4c3.99-13.62,8.37-37.56,8.56-42.14c0.19-4.58-3.31-14.4-7.11-21.5c-2.66-5-11.83-23.14-17.82-35.03
			c-0.16-0.33-0.33-0.66-0.5-0.99c-2.28-4.54-4.03-8.02-4.64-9.27c-1.57,0.13-3.55,0.3-5.78,0.47c-0.28,0.02-0.57,0.04-0.86,0.06
			c-4.37,0.33-9.58,0.67-14.58,0.87c-1.37,0.05-2.86,0.08-4.42,0.08c-0.26,0-0.52,0-0.79-0.01c-5.66-0.04-12.17-0.42-17.49-0.91
			c-0.26-0.02-0.53-0.05-0.79-0.07c-2.74-0.26-5.12-0.56-6.85-0.85c-0.49,1.72-1.37,5.29-1.78,10.03c-0.05,0.68-0.1,1.47-0.13,2.37
			c-0.02,0.3-0.02,0.62-0.03,0.94C407.86,248.99,408.54,264.45,409.9,272.81z"/>
		<path class="st14" d="M444.54,202.64h60.26c0.74,0,1.5-0.6,1.7-1.34c0.2-0.74-0.24-1.34-0.98-1.34h-60.26
			c-0.74,0-1.5,0.6-1.7,1.34C443.36,202.04,443.8,202.64,444.54,202.64z"/>
		<g>
			<path class="st9" d="M445.66,150.28c0.06,0,0.12-0.01,0.17-0.04c0.13-0.07,0.22-0.2,0.22-0.35c-0.05-4.72,0.1-9.94,0.43-10.5
				c0.1-0.17,0.48-0.41,1.23-0.57c1.33-0.29,2.93-0.18,3.57,0.26c0.18,0.12,0.42,0.07,0.54-0.1c0.12-0.18,0.07-0.42-0.1-0.54
				c-0.93-0.63-2.85-0.67-4.18-0.37c-0.61,0.14-1.41,0.41-1.73,0.93c-0.54,0.9-0.56,7.46-0.55,10.1l-1.85-1.45
				c-0.17-0.13-0.41-0.1-0.55,0.07c-0.13,0.17-0.1,0.41,0.07,0.55l2.48,1.95C445.49,150.26,445.58,150.28,445.66,150.28z"/>
		</g>
		<g>
			<path class="st9" d="M441.62,138.36c0.11,0,0.23-0.05,0.3-0.14c0.14-0.17,0.11-0.41-0.06-0.55c-1.39-1.12-4.06-1.1-5.19-0.53
				c-0.19,0.1-0.27,0.33-0.17,0.52c0.1,0.19,0.33,0.27,0.52,0.17c0.8-0.4,3.19-0.49,4.35,0.44
				C441.45,138.33,441.54,138.36,441.62,138.36z"/>
		</g>
		<g>
			<path class="st9" d="M429.86,142.74c0.17,0,0.32-0.11,0.37-0.28c0.01-0.04,0.31-1.09,0.01-2.39c-0.05-0.21-0.26-0.34-0.47-0.29
				c-0.21,0.05-0.34,0.26-0.29,0.47c0.25,1.09,0.01,1.99,0,2c-0.06,0.21,0.06,0.42,0.27,0.48
				C429.79,142.74,429.82,142.74,429.86,142.74z"/>
		</g>
		<g>
			<path class="st9" d="M443.09,153.62c0.6,0,1.03-0.07,1.08-0.08c0.21-0.04,0.35-0.24,0.32-0.45c-0.04-0.21-0.24-0.35-0.45-0.32
				c-0.03,0.01-3.13,0.51-4.48-1.44c-0.12-0.18-0.36-0.22-0.54-0.1c-0.18,0.12-0.22,0.36-0.1,0.54
				C440,153.34,441.9,153.62,443.09,153.62z"/>
		</g>
		<g>
			<path class="st11" d="M458.36,193.3c0.04,0,0.07,0,0.11-0.02c0.21-0.06,0.33-0.27,0.27-0.48l-3.41-11.87
				c-0.06-0.21-0.28-0.33-0.48-0.27c-0.21,0.06-0.33,0.27-0.27,0.48l3.41,11.87C458.04,193.19,458.19,193.3,458.36,193.3z"/>
		</g>
		<g>
			<path class="st11" d="M414.96,202.64c0.11,0,0.22-0.05,0.3-0.14c0.14-0.17,0.11-0.41-0.05-0.55c-2.66-2.2-3-12.68-0.58-17.53
				c0.1-0.19,0.02-0.43-0.17-0.52c-0.19-0.1-0.43-0.02-0.52,0.17c-2.65,5.3-2.2,16.01,0.78,18.48
				C414.78,202.61,414.87,202.64,414.96,202.64z"/>
		</g>
		<g>
			<path class="st9" d="M454.94,228.14c0.86,1.56,2.99,3.94,5.29,5.88c1.49,1.26,3.99,3.11,6.49,3.85c-0.16-0.33-0.33-0.66-0.5-0.99
				c-4.13-1.6-8.87-6.33-10.42-8.81C455.52,228.1,455.23,228.12,454.94,228.14z"/>
		</g>
		<g>
			<path class="st9" d="M408.08,240.59c3.23-1.86,8-7.77,9.58-12.42c-0.26-0.02-0.53-0.05-0.79-0.07
				c-1.53,4.36-5.88,9.64-8.77,11.55C408.09,239.95,408.08,240.26,408.08,240.59z"/>
		</g>
		<g>
			<path class="st9" d="M435.15,229.08l0.73,7.08c0.02,0.19,0.19,0.34,0.38,0.34h0.05c0.21-0.02,0.37-0.21,0.34-0.43l-0.72-6.98
				C435.68,229.09,435.42,229.09,435.15,229.08z"/>
		</g>
		<path class="st9" d="M440.28,141.1c-0.14,0.59,0.04,1.14,0.4,1.22c0.37,0.09,0.78-0.32,0.92-0.9c0.14-0.59-0.04-1.14-0.4-1.22
			C440.83,140.1,440.42,140.51,440.28,141.1z"/>
		<path class="st9" d="M448.68,142.17c-0.14,0.59,0.04,1.14,0.4,1.22c0.37,0.09,0.78-0.32,0.92-0.9c0.14-0.59-0.04-1.14-0.4-1.22
			C449.24,141.18,448.82,141.58,448.68,142.17z"/>
		<path class="st8" d="M428.54,151.86c1.85,5.65,4.06,10.36,8.84,11.44c-0.16-1.07-0.35-2.27-0.56-3.42
			c-0.18-0.95-0.37-1.88-0.57-2.7c-0.11-0.06-0.23-0.12-0.33-0.18c-2.86-1.67-5.33-7.42-5.32-10.86
			C429.98,147.56,429.21,149.7,428.54,151.86z"/>
		<path class="st14" d="M456.1,198.55l7.39-27.59l1.99-7.44c0.23-0.86,1.12-1.56,1.97-1.56h48.56c0.86,0,1.37,0.7,1.14,1.56
			l-9.39,35.03c-0.23,0.86-1.12,1.56-1.97,1.56h-46h-2.56C456.38,200.11,455.87,199.41,456.1,198.55z"/>
		<g>
			<path class="st3" d="M484.78,182.85c-0.98-1.76-0.74-4.89,0.55-6.97c0.84-1.36,2.01-2.07,3.31-2.02
				c1.52,0.07,2.15,2.44,2.11,4.62c-0.06,2.87-1.23,5.76-3.68,5.76C486.08,184.25,485.29,183.76,484.78,182.85z M488.6,174.65
				c-1.28-0.06-2.13,0.86-2.61,1.65c-1.13,1.83-1.37,4.66-0.53,6.18c0.37,0.66,0.91,1,1.6,1c1.92,0,2.85-2.59,2.9-5
				C490.01,176.4,489.4,174.68,488.6,174.65z"/>
		</g>
		<path class="st7" d="M405.23,202.84c4.57-1.36,9.73-0.58,9.73-0.58c3.21,3.99,9.34,3.8,14.89,2.92
			c5.55-0.88,11.97-2.72,12.07-4.67c0.1-1.95,2.04-5.84,3.11-6.23c1.07-0.39,0.58,2.72,0.1,4.67c-0.49,1.95,0.19,2.82,3.5,3.5
			c3.31,0.68,9.73-1.07,9.73,0c0,1.07-5.74,2.14-5.74,2.14s5.74-0.49,4.77,0.78c-0.97,1.27-5.84,2.43-5.84,2.43s5.84-0.39,4.55,0.58
			c-1.29,0.97-7.76,1.46-7.76,1.46c-9.93,5.45-29.58,13.72-37.76,12.36c-0.72-0.12-1.4-0.32-2.06-0.54
			c-6.73-2.34-9.84-9.87-11.08-13.86C397.44,207.8,400.65,204.2,405.23,202.84z"/>
	</g>
	<g>
		<path d="M375,365.82c0,0-3.57-20.55-5.39-30.41c-1.82-9.87-6.34-23.6-8.51-28.17c-2.16-4.57-9.61-4.47-13.77-2.14l1.8,8.88
			c0.54-0.48,1.03-0.94,1.45-1.37c3.08,10.52,14.82,53.35,14.82,53.35l-0.03,0l0.03,0.08L375,365.82z"/>
		<path class="st9" d="M365.39,365.95l-15.83,0.34l-14.99-36.19c0,0-18.39,25.24-28.37,32.65c-9.98,7.4-15.06,7.26-20.31,6.87
			c-5.25-0.39-8.65-1.33-11.72-6.51c-3.07-5.17-4.34-18.89-3.85-25.11c0,0,3.4,0.86,7.39,1.66c0.22,0.04,0.45,0.08,0.67,0.13
			c2.53,0.49,5.22,0.93,7.4,1.1c0.25,0.01,0.49,0.04,0.72,0.05c1.17,0.06,2.14,0.03,2.81-0.14c0,0,7.07-5.48,16.07-12.24
			c1.49-1.12,3.03-2.28,4.61-3.45c3.38,0.48,8.42,0.95,13.54,0.5c0.4-0.03,0.8-0.07,1.19-0.11c1.48-0.17,2.95-0.42,4.39-0.78
			c4.45-1.1,8.77-3.1,12.46-5.32c0.2-0.12,0.4-0.24,0.59-0.36c2.77-1.7,5.16-3.5,6.93-5.08c0.54-0.48,1.03-0.94,1.44-1.37
			C353.65,323.12,365.39,365.95,365.39,365.95z"/>
		<polygon class="st12" points="350.24,366.28 349.49,370.6 370.36,370.15 364.94,365.96 		"/>
		<polygon class="st15" points="370.36,370.15 382.52,369.89 374.57,365.75 364.94,365.96 		"/>
		<g>
			<path class="st12" d="M367.27,290.23l-5.62,16.62c-0.23,0.71-1.01,1.09-1.71,0.85l-6.59-2.22l-1.24-0.42
				c-0.71-0.23-1.09-1.01-0.85-1.71l5.62-16.62c0.23-0.71,1-1.09,1.71-0.85l0.91,0.3l6.92,2.34
				C367.13,288.76,367.51,289.53,367.27,290.23z"/>
			<path class="st16" d="M359.5,286.18c-1.25,4.06-4.37,13.77-6.15,19.3l-1.24-0.42c-0.71-0.23-1.09-1.01-0.85-1.71l5.62-16.62
				c0.23-0.71,1-1.09,1.71-0.85L359.5,286.18z"/>
		</g>
		<path class="st7" d="M348.43,302.58c0.55-1.96,1.8-6.63,2.65-6.4c0.85,0.24-0.23,4.99,0.69,4.72c0.92-0.27,9.64-3.76,10.25-3.01
			c0.61,0.75-4.66,3.48-4.66,3.48s6.03-2.41,6.55-1.83c0.52,0.58-6.07,4.44-6.07,4.44s4.94-2.14,5.46-1.47
			c0.52,0.66-4.25,2.99-4.25,2.99s4.19-1.64,4.54-0.97c0.35,0.67-2.47,3.01-5.65,4.52c-3.18,1.51-6.04,1.99-6.04,1.99
			s0.1-3.33-0.88-5.37C350.06,303.64,348.43,302.58,348.43,302.58z"/>
		<path class="st9" d="M346.55,304.41c-1.01-0.72-2.33-1.1-4.19-1.02c-1.21,0.05-4.96,2.28-9.94,5.63c1.61-0.23,3.22-0.51,4.8-0.87
			C342.1,307.06,344.95,305.58,346.55,304.41z"/>
		<path class="st10" d="M289.34,340.8c0,0-9.23-0.81-11.86-1.43c-2.63-0.62-7.13-1.37-7.13-1.37S285.38,341.82,289.34,340.8z"/>
		<path class="st11" d="M357.8,366.11l-0.71,0.02l-15.49-46.72l-2.15-6.49c-1.57,1.37-7.77,6.74-14.7,12.59
			c-6.85,5.77-14.41,11.99-18.89,15.22c-9.53,6.86-22.38,13.44-23.9,12.72c-0.38-0.18-0.87-0.96-1.38-2.11
			c-0.05-0.05-0.08-0.12-0.09-0.19c-1.26-2.89-2.62-7.85-2.76-11.48c0.22,0.04,0.45,0.08,0.67,0.13c0.14,3.47,1.39,7.83,2.47,10.53
			c0.96-1.7,3.64-6.54,4.93-9.43c0.25,0.01,0.49,0.04,0.72,0.05c-1.4,3.24-4.71,9.1-5.32,10.17c0.43,0.96,0.81,1.6,1.04,1.71
			c1.19,0.41,13.2-5.43,23.21-12.65c4.31-3.11,11.46-8.98,18.1-14.56c8.25-6.94,15.69-13.43,15.83-13.54
			c0.09-0.08,0.21-0.11,0.32-0.07c0.11,0.03,0.19,0.11,0.23,0.22l2.27,6.83L357.8,366.11z"/>
		<path class="st5" d="M289.61,275.71l0.14,0.07c0.08,0.3,0.17,0.56,0.26,0.75c1.91-4.16,3.44-7.79,4.13-10.13
			c2.83-9.61,10.85-17.99,10.85-17.99c-1.33-2.68-3.08-5.77-6.92-7.46c-3.84-1.69-8.89-0.65-11.61,2.45
			c-2.72,3.1-2.05,4.95-3.88,7.1c-1.84,2.15-6.41,5.52-7.94,9.03c-1.53,3.51-0.89,5.61-0.6,7.38c0.29,1.77,0.49,3.2-3.28,4.72
			c-3.77,1.52-10.52,9.86-11.96,13.62c-1.44,3.75-0.75,11.09,4.64,15.37c2.24,1.78,5.85,3.9,8.31,5.27
			c0.89-5.69,2.22-11.23,3.99-15.09C279.53,282.52,285.01,277.84,289.61,275.71z"/>
		<path class="st10" d="M348.43,302.58c0,0-0.44,0.79-1.88,1.83c-1.6,1.16-4.45,2.65-9.32,3.74c-1.59,0.35-3.19,0.64-4.8,0.87
			c-7.78,1.1-15.64,0.73-21.57-1.16c0,0,1.66-1.79-0.14-6.24c-1.79-4.44-12.99-21.95-12.99-21.95s-0.31,1.11-2.18,0.89
			c-1.86-0.21-4.71-2.8-5.41-3.8c-0.05-0.07-0.09-0.15-0.13-0.24c-0.09-0.2-0.18-0.45-0.26-0.75l-0.14-0.07
			c-4.6,2.13-10.08,6.81-13.87,15.09c-1.77,3.86-3.1,9.4-3.99,15.09c-1.02,6.51-1.48,13.22-1.38,17.82
			c0.19,8.62-0.03,14.29-0.03,14.29s4.5,0.75,7.13,1.37c2.63,0.62,11.86,1.43,11.86,1.43s7.07-5.48,16.07-12.24l0.48-4.18
			c0,0,1.6,0.37,4.13,0.73c4.62,0.66,12.33,1.29,19.12-0.39c9.13-2.25,17.72-8.32,21.44-12.12c0.56-0.58,1.02-1.1,1.34-1.56
			C351.92,311.04,353.16,306.2,348.43,302.58z"/>
		<path class="st7" d="M297.73,279.67c0,0-0.31,1.11-2.18,0.9c-1.86-0.22-4.71-2.81-5.4-3.8c-0.15-0.21-0.28-0.55-0.39-0.99
			c-0.22-0.84-0.4-2.07-0.54-3.55c-0.06-0.59-0.11-1.22-0.16-1.88c-0.08-0.99-0.15-2.04-0.2-3.13c0.95,1.88,2.65,3.84,5.68,4.5
			c0.77,0.17,1.51,0.26,2.19,0.27l0.49,3.65L297.73,279.67z"/>
		<path class="st7" d="M304.99,248.41c-1.73-1.99-6.84-3.74-11.43-0.68c-4.58,3.06-3.94,5.24-5,7.38c-1.05,2.14-2.64,3.1-2.64,3.1
			c-0.05-2.37-1.25-3.18-2.5-2.4c-1.25,0.79-0.83,4.67,1.36,6.31c2.19,1.64,2.85,1.04,2.85,1.04s0.14,1.98,1.19,4.06
			c0.95,1.88,2.65,3.84,5.67,4.49c0.78,0.17,1.51,0.26,2.19,0.27c4.9,0.11,7.39-3.52,8.63-7.77
			C306.75,259.36,306.73,250.4,304.99,248.41z"/>
		<g>
			<path class="st9" d="M297.2,255.54c-0.1,0-0.2-0.04-0.27-0.12c-1.19-1.46-3.8-2.08-5.7-1.34c-0.18,0.06-0.37-0.02-0.44-0.19
				c-0.07-0.17,0.02-0.37,0.19-0.44c2.19-0.84,5.09-0.15,6.47,1.55c0.12,0.15,0.1,0.36-0.05,0.48
				C297.35,255.52,297.28,255.54,297.2,255.54z"/>
		</g>
		<g>
			<path class="st9" d="M285.58,261.2c-0.1,0-0.19-0.04-0.26-0.11c-0.05-0.05-1.11-1.25-1.32-2.74c-0.03-0.19,0.1-0.36,0.29-0.38
				c0.18-0.03,0.36,0.1,0.38,0.29c0.18,1.29,1.15,2.38,1.16,2.39c0.12,0.14,0.11,0.35-0.03,0.48
				C285.73,261.17,285.66,261.2,285.58,261.2z"/>
		</g>
		<g>
			<path class="st9" d="M301.46,265.99c-0.08,0-0.16-0.02-0.22-0.08l-3.1-2.52c-0.14-0.12-0.17-0.33-0.05-0.48
				c0.12-0.15,0.33-0.17,0.48-0.05l2.58,2.11l0.53-9.38c0.01-0.11,0.07-0.22,0.17-0.27c0.1-0.06,2.51-1.42,4.4-0.61
				c0.17,0.07,0.25,0.27,0.18,0.44c-0.07,0.17-0.27,0.25-0.44,0.18c-1.34-0.57-3.11,0.22-3.64,0.49l-0.56,9.85
				c-0.01,0.13-0.08,0.24-0.2,0.29C301.55,265.98,301.5,265.99,301.46,265.99z"/>
		</g>
		<g>
			<path class="st9" d="M298.72,268.41c-0.78,0.02-1.54-0.23-2.12-0.49c-0.33-0.15-1.3-0.64-1.42-0.96
				c-0.06-0.18,0.03-0.37,0.21-0.43c0.15-0.06,0.31,0.01,0.4,0.13c0.27,0.27,2.29,1.5,3.72,0.91c0.17-0.07,0.37,0.01,0.44,0.18
				c0.07,0.17-0.01,0.37-0.18,0.44C299.43,268.34,299.08,268.4,298.72,268.41z"/>
		</g>
		<g>
			<path class="st11" d="M311.43,308.37c-0.04,0-0.08-0.01-0.12-0.02c-9.88-3.39-17.33-16.1-18.01-18.84
				c-0.05-0.18,0.06-0.36,0.25-0.41c0.18-0.05,0.37,0.06,0.41,0.25c0.67,2.67,7.93,15.06,17.58,18.37c0.18,0.06,0.27,0.25,0.21,0.43
				C311.7,308.28,311.57,308.37,311.43,308.37z"/>
		</g>
		<g>
			<path class="st11" d="M305.89,324.72c-0.02,0-0.04,0-0.06,0c-19.64-3.08-26.25-26.41-26.57-29.82c-0.02-0.19,0.12-0.35,0.31-0.37
				c0.18-0.02,0.35,0.12,0.37,0.3c0.3,3.18,7.07,26.25,26,29.22c0.18,0.03,0.31,0.2,0.28,0.39
				C306.19,324.6,306.05,324.72,305.89,324.72z"/>
		</g>
		<path class="st9" d="M295.87,258.08c-0.17,0.5-0.56,0.81-0.87,0.71c-0.31-0.11-0.42-0.59-0.25-1.09c0.17-0.5,0.56-0.81,0.87-0.71
			C295.93,257.09,296.04,257.58,295.87,258.08z"/>
		<path class="st9" d="M304.79,258.59c-0.17,0.5-0.56,0.81-0.87,0.71c-0.31-0.11-0.42-0.59-0.25-1.09c0.17-0.5,0.56-0.81,0.87-0.71
			C304.84,257.6,304.95,258.09,304.79,258.59z"/>
		<g>
			<g>
				<path class="st17" d="M282.04,254c-0.14,0-0.28-0.09-0.33-0.23c-0.06-0.18,0.03-0.37,0.21-0.43c2.48-0.84,5.48-3.29,6.15-6.17
					c0.05-0.23,0.1-0.44,0.15-0.65c0.62-2.82,1.13-3.99,7.81-4.68c0.2-0.02,0.35,0.12,0.37,0.3c0.02,0.19-0.12,0.35-0.3,0.37
					c-6.46,0.67-6.68,1.69-7.22,4.15c-0.05,0.21-0.09,0.43-0.15,0.66c-0.73,3.11-3.95,5.75-6.59,6.65
					C282.11,253.99,282.07,254,282.04,254z"/>
			</g>
			<g>
				<path class="st17" d="M266.92,277.98c-0.05,0-0.11-0.01-0.16-0.04c-0.17-0.08-0.23-0.29-0.15-0.45c0.96-1.89,2.86-2.88,4.7-3.84
					c1.81-0.94,3.51-1.83,3.99-3.48c0.33-1.13,0.41-2.2,0.49-3.33c0.17-2.3,0.36-4.91,2.72-8.77c0.1-0.16,0.31-0.21,0.47-0.11
					c0.16,0.1,0.21,0.31,0.11,0.47c-2.28,3.72-2.45,6.13-2.62,8.46c-0.09,1.17-0.17,2.28-0.52,3.48c-0.56,1.92-2.39,2.87-4.33,3.88
					c-1.74,0.91-3.54,1.85-4.41,3.55C267.16,277.91,267.04,277.98,266.92,277.98z"/>
			</g>
			<g>
				<path class="st17" d="M265.38,292.55c-0.14,0-0.27-0.08-0.32-0.21c-1.22-3.07,1.06-9.11,6.27-12.87
					c0.15-0.11,0.36-0.08,0.47,0.08c0.11,0.15,0.07,0.36-0.08,0.47c-4.82,3.47-7.16,9.24-6.04,12.08c0.07,0.17-0.02,0.37-0.19,0.44
					C265.46,292.54,265.42,292.55,265.38,292.55z"/>
			</g>
			<g>
				<path class="st17" d="M277.16,282.49c-0.12,0-0.25-0.06-0.31-0.18c-0.09-0.17-0.02-0.37,0.15-0.46
					c3.6-1.86,6.12-8.94,5.01-14.04c-0.04-0.18,0.08-0.36,0.26-0.4c0.18-0.04,0.36,0.08,0.4,0.26c1.17,5.35-1.53,12.82-5.36,14.79
					C277.27,282.48,277.22,282.49,277.16,282.49z"/>
			</g>
		</g>
		<path class="st8" d="M297.19,275.64c-2.45-0.86-6.03-2.55-8.15-5.29c-0.08-0.99-0.15-2.04-0.2-3.13c0.95,1.88,2.65,3.84,5.68,4.5
			c0.77,0.17,1.51,0.26,2.19,0.27L297.19,275.64z"/>
	</g>
</g>
</svg>
